<?xml version="1.0" encoding="UTF-8"?>
<svg width="800px" height="600px" viewBox="0 0 800 600" version="1.1" xmlns="http://www.w3.org/2000/svg" xmlns:xlink="http://www.w3.org/1999/xlink">
    <title>Hero Particles</title>
    <g stroke="none" stroke-width="1" fill="none" fill-rule="evenodd">
        <circle fill="#FFFFFF" opacity="0.2" cx="50" cy="50" r="3"></circle>
        <circle fill="#FFFFFF" opacity="0.3" cx="150" cy="80" r="2"></circle>
        <circle fill="#FFFFFF" opacity="0.2" cx="250" cy="30" r="4"></circle>
        <circle fill="#FFFFFF" opacity="0.3" cx="350" cy="70" r="2"></circle>
        <circle fill="#FFFFFF" opacity="0.2" cx="450" cy="40" r="3"></circle>
        <circle fill="#FFFFFF" opacity="0.3" cx="550" cy="90" r="2"></circle>
        <circle fill="#FFFFFF" opacity="0.2" cx="650" cy="60" r="4"></circle>
        <circle fill="#FFFFFF" opacity="0.3" cx="750" cy="100" r="2"></circle>
        
        <circle fill="#FFFFFF" opacity="0.2" cx="100" cy="150" r="3"></circle>
        <circle fill="#FFFFFF" opacity="0.3" cx="200" cy="180" r="2"></circle>
        <circle fill="#FFFFFF" opacity="0.2" cx="300" cy="130" r="4"></circle>
        <circle fill="#FFFFFF" opacity="0.3" cx="400" cy="170" r="2"></circle>
        <circle fill="#FFFFFF" opacity="0.2" cx="500" cy="140" r="3"></circle>
        <circle fill="#FFFFFF" opacity="0.3" cx="600" cy="190" r="2"></circle>
        <circle fill="#FFFFFF" opacity="0.2" cx="700" cy="160" r="4"></circle>
        
        <circle fill="#FFFFFF" opacity="0.2" cx="50" cy="250" r="3"></circle>
        <circle fill="#FFFFFF" opacity="0.3" cx="150" cy="280" r="2"></circle>
        <circle fill="#FFFFFF" opacity="0.2" cx="250" cy="230" r="4"></circle>
        <circle fill="#FFFFFF" opacity="0.3" cx="350" cy="270" r="2"></circle>
        <circle fill="#FFFFFF" opacity="0.2" cx="450" cy="240" r="3"></circle>
        <circle fill="#FFFFFF" opacity="0.3" cx="550" cy="290" r="2"></circle>
        <circle fill="#FFFFFF" opacity="0.2" cx="650" cy="260" r="4"></circle>
        <circle fill="#FFFFFF" opacity="0.3" cx="750" cy="300" r="2"></circle>
        
        <circle fill="#FFFFFF" opacity="0.2" cx="100" cy="350" r="3"></circle>
        <circle fill="#FFFFFF" opacity="0.3" cx="200" cy="380" r="2"></circle>
        <circle fill="#FFFFFF" opacity="0.2" cx="300" cy="330" r="4"></circle>
        <circle fill="#FFFFFF" opacity="0.3" cx="400" cy="370" r="2"></circle>
        <circle fill="#FFFFFF" opacity="0.2" cx="500" cy="340" r="3"></circle>
        <circle fill="#FFFFFF" opacity="0.3" cx="600" cy="390" r="2"></circle>
        <circle fill="#FFFFFF" opacity="0.2" cx="700" cy="360" r="4"></circle>
        
        <circle fill="#FFFFFF" opacity="0.2" cx="50" cy="450" r="3"></circle>
        <circle fill="#FFFFFF" opacity="0.3" cx="150" cy="480" r="2"></circle>
        <circle fill="#FFFFFF" opacity="0.2" cx="250" cy="430" r="4"></circle>
        <circle fill="#FFFFFF" opacity="0.3" cx="350" cy="470" r="2"></circle>
        <circle fill="#FFFFFF" opacity="0.2" cx="450" cy="440" r="3"></circle>
        <circle fill="#FFFFFF" opacity="0.3" cx="550" cy="490" r="2"></circle>
        <circle fill="#FFFFFF" opacity="0.2" cx="650" cy="460" r="4"></circle>
        <circle fill="#FFFFFF" opacity="0.3" cx="750" cy="500" r="2"></circle>
        
        <circle fill="#FFFFFF" opacity="0.2" cx="100" cy="550" r="3"></circle>
        <circle fill="#FFFFFF" opacity="0.3" cx="200" cy="580" r="2"></circle>
        <circle fill="#FFFFFF" opacity="0.2" cx="300" cy="530" r="4"></circle>
        <circle fill="#FFFFFF" opacity="0.3" cx="400" cy="570" r="2"></circle>
        <circle fill="#FFFFFF" opacity="0.2" cx="500" cy="540" r="3"></circle>
        <circle fill="#FFFFFF" opacity="0.3" cx="600" cy="590" r="2"></circle>
        <circle fill="#FFFFFF" opacity="0.2" cx="700" cy="560" r="4"></circle>
    </g>
</svg>
